<svg width="20" height="20" viewBox="0 0 20 20" fill="none" xmlns="http://www.w3.org/2000/svg">
<path d="M14.7768 1.28366C14.425 1.08986 14.0551 0.929351 13.6855 0.769022C13.6248 0.742703 13.5642 0.716388 13.5036 0.689932C12.8835 0.418004 12.2281 0.255322 11.5656 0.136576C10.6184 -0.0332308 9.66531 -0.0332309 8.70867 0.0736405M14.7768 1.28366L0.0401191 10.724C-0.0234213 9.8785 0.011879 9.03778 0.162493 8.20655C0.298987 7.45489 0.499022 6.71748 0.819077 6.02163M14.7768 1.28366C15.3075 1.57578 15.7981 1.9332 16.2653 2.32506L14.7768 1.28366ZM8.70867 0.0736405C7.40845 0.219698 6.19412 0.638872 5.05981 1.27654C4.27026 1.71946 3.5572 2.27875 2.9112 2.92354M8.70867 0.0736405L8.75031 0.446322M8.70867 0.0736405L8.75054 0.446297M2.9112 2.92354C2.3817 3.45315 1.92162 4.04094 1.51449 4.66436C1.26934 5.03914 1.07968 5.45313 0.891394 5.86411C0.867303 5.9167 0.843236 5.96923 0.819077 6.02163M2.9112 2.92354L3.17612 3.18896C3.17613 3.18895 3.17614 3.18894 3.17615 3.18893M2.9112 2.92354L3.17639 3.18868C3.17631 3.18876 3.17623 3.18884 3.17615 3.18893M0.819077 6.02163L1.15977 6.17833C1.15972 6.17843 1.15967 6.17854 1.15962 6.17864C0.856741 6.83725 0.6643 7.54206 0.531485 8.27341M0.819077 6.02163L0.531485 8.27341M0.531485 8.27341C0.387003 9.07079 0.352709 9.87946 0.414065 10.6959L0.414082 10.6961C0.483798 11.6315 0.656651 12.5315 0.995677 13.3829L0.995954 13.3836C1.18592 13.8634 1.41215 14.3343 1.66075 14.7942C1.97533 15.3749 2.36702 15.9111 2.81774 16.3966L2.81793 16.3968C3.19612 16.8049 3.6124 17.1862 4.04474 17.5534L4.04478 17.5535C4.76995 18.1697 5.58725 18.639 6.48029 18.9613C7.00575 19.1507 7.5214 19.3258 8.04007 19.4352L8.04024 19.4352C8.91708 19.6206 9.81068 19.6666 10.7121 19.5888L10.7123 19.5888C11.3007 19.5383 11.8777 19.4388 12.4417 19.2817L12.442 19.2816C13.3859 19.0198 14.2691 18.6239 15.0825 18.0797L15.0829 18.0795C15.911 17.5269 16.651 16.884 17.2756 16.1149L17.2757 16.1147C17.8184 15.4474 18.2733 14.7377 18.6039 13.9562L18.6041 13.9557C18.667 13.8076 18.7238 13.6545 18.7825 13.4933C18.7905 13.4712 18.7986 13.449 18.8067 13.4266C18.8571 13.2878 18.9098 13.1426 18.9668 12.9995L18.9671 12.9986C19.1399 12.5673 19.0399 12.0953 18.5881 11.886C18.1795 11.6972 17.6848 11.8722 17.5314 12.2882L17.5313 12.2885C17.2427 13.069 16.9268 13.9047 16.37 14.6239C16.0488 15.0404 15.7049 15.4801 15.3088 15.8686C14.7526 16.4147 14.1158 16.8509 13.4133 17.1891M0.531485 8.27341L11.7323 17.797L11.6468 17.4319L11.7326 17.797C12.3218 17.659 12.876 17.4491 13.4133 17.1891M13.4133 17.1891L13.2506 16.8513L13.414 17.1888C13.4138 17.1889 13.4135 17.189 13.4133 17.1891ZM3.17615 3.18893C3.80123 2.56502 4.48739 2.02763 5.24328 1.60359L5.24357 1.60343C6.33859 0.987852 7.50497 0.586247 8.75031 0.446322M3.17615 3.18893L8.75031 0.446322M8.75031 0.446322L8.75054 0.446297M8.75054 0.446297C9.67996 0.342482 10.5957 0.343667 11.4995 0.505692L11.5656 0.136719L11.4995 0.505693C12.1471 0.621785 12.7706 0.777959 13.353 1.03336L13.3535 1.03357C13.4157 1.06074 13.4774 1.08751 13.5385 1.11406C13.9089 1.27482 14.2608 1.42754 14.5958 1.61211L14.5959 1.61218C15.0993 1.88926 15.5697 2.23107 16.0243 2.61237L16.0245 2.61258C16.7048 3.18225 17.2808 3.85548 17.8107 4.58898M8.75054 0.446297L17.8107 4.58898M1.98763 10.3924H1.96332L1.98243 9.99922C1.98621 9.92154 1.98843 9.83645 1.99077 9.74681C1.99674 9.51784 2.00349 9.25924 2.03892 9.01892C2.14394 8.30056 2.32414 7.59605 2.6043 6.91351C2.91245 6.16222 3.32352 5.47134 3.85465 4.85626L3.85477 4.85612C4.24663 4.40276 4.67882 3.98208 5.16982 3.61295L5.16998 3.61283C6.42539 2.6701 7.83381 2.12547 9.39933 2.0268C11.0905 1.91977 12.6708 2.31571 14.1142 3.23282C14.6296 3.55944 15.1165 3.9336 15.5486 4.37972C15.8702 4.71176 16.1612 5.07275 16.4245 5.44545C16.8911 6.10594 17.2303 6.83011 17.4753 7.59043M1.98763 10.3924L18.9999 7.07029M1.98763 10.3924C2.00622 10.9033 2.08218 11.4073 2.2149 11.9008L2.21502 11.9012C2.4906 12.9205 2.897 13.8968 3.55023 14.777L3.55028 14.7771C4.20324 15.6565 5.00032 16.3644 5.91845 16.9213L5.91864 16.9214C6.89659 17.5139 7.96381 17.8532 9.09572 17.9677L1.98763 10.3924ZM17.4753 7.59043L17.1184 7.70545L17.4752 7.59014C17.4752 7.59024 17.4753 7.59033 17.4753 7.59043ZM17.4753 7.59043C17.5586 7.8481 17.6873 8.01477 17.887 8.11442L17.8875 8.11463C18.2869 8.31454 18.7051 8.18873 18.9364 7.84681L18.9367 7.84626C19.0872 7.62471 19.109 7.35883 18.9999 7.07029M18.9999 7.07029C18.8017 6.54814 18.6011 6.03801 18.3698 5.54581L18.3695 5.54509C18.213 5.21018 18.0246 4.88615 17.8107 4.58898M18.9999 7.07029L17.8107 4.58898" stroke="black" stroke-width="0.75"/>
<path d="M4.94197 9.99902C4.9388 10.7151 5.03716 11.3344 5.30169 11.9241L4.94197 9.99902ZM4.94197 9.99902L4.96035 9.99284L4.95078 9.71367C4.93618 9.2873 5.01903 8.79554 5.20729 8.32917L4.94197 9.99902ZM7.14076 5.81403L7.1405 5.81421C6.70422 6.10664 6.32707 6.48098 5.99387 6.91586C5.66599 7.34381 5.41314 7.8195 5.20731 8.32913L7.14076 5.81403ZM7.14076 5.81403C7.42161 5.62543 7.74558 5.47803 8.09283 5.33003L7.14076 5.81403ZM13.6101 6.64036L13.6095 6.63972C13.1765 6.16778 12.6963 5.77628 12.1372 5.5023L13.6101 6.64036ZM13.6101 6.64036L13.619 6.64999C13.8523 6.90305 14.0098 7.07385 14.0717 7.29648L14.0718 7.29694M13.6101 6.64036L14.0718 7.29694M14.0718 7.29694C14.1514 7.58165 14.0921 7.81081 13.8965 8.00738L13.8965 8.00739M14.0718 7.29694L13.8965 8.00739M13.8965 8.00739C13.7054 8.19949 13.4796 8.25321 13.1743 8.17376L13.0798 8.53667L13.1746 8.17384C13.0342 8.13718 12.9322 8.04835 12.7821 7.84861C12.5979 7.60263 12.3729 7.3947 12.1746 7.21591C11.7952 6.87183 11.3502 6.66432 10.8958 6.52906L10.8953 6.52891M13.8965 8.00739L10.8953 6.52891M10.8953 6.52891C10.3326 6.36229 9.75794 6.34379 9.18897 6.4674L9.18857 6.46749M10.8953 6.52891L9.18857 6.46749M9.18857 6.46749C7.91356 6.74594 7.02973 7.53511 6.55176 8.72987L6.55176 8.72988M9.18857 6.46749L6.55176 8.72988M6.55176 8.72988C6.2302 9.53373 6.25369 10.3624 6.51812 11.1591L6.55176 8.72988ZM10.1848 13.6175L10.1848 13.6175C8.56734 13.7481 7.03497 12.7171 6.51814 11.1592L10.1848 13.6175ZM10.1848 13.6175C10.7102 13.5751 11.2393 13.4433 11.713 13.1458C12.146 12.8741 12.5526 12.5262 12.8579 12.0667L12.8582 12.0663M10.1848 13.6175L12.8582 12.0663M12.8582 12.0663C12.9236 11.9676 13.0644 11.8712 13.2515 11.8279C13.4387 11.7846 13.6058 11.8097 13.706 11.8692L13.7065 11.8695M12.8582 12.0663L13.7065 11.8695M13.7065 11.8695C14.0739 12.0872 14.1828 12.4651 14.018 12.8558L14.0178 12.8564M13.7065 11.8695L14.0178 12.8564M14.0178 12.8564C14.0092 12.8768 13.9915 12.9065 13.9538 12.9545C13.9353 12.978 13.9152 13.002 13.8909 13.0309L13.8868 13.0357C13.8646 13.062 13.8386 13.0928 13.8135 13.1244L13.8132 13.1248M14.0178 12.8564L13.8132 13.1248M13.8132 13.1248C13.0143 14.1325 11.9896 14.736 10.729 14.9647C10.1278 15.0737 9.52815 15.0659 8.93669 14.9428L8.93653 14.9428M13.8132 13.1248L8.93653 14.9428M8.93653 14.9428C8.10453 14.77 7.3581 14.4115 6.70902 13.8536L6.70885 13.8534M8.93653 14.9428L6.70885 13.8534M6.70885 13.8534C6.09426 13.3257 5.64153 12.6808 5.30174 11.9242L6.70885 13.8534ZM8.09302 5.32996C8.82897 5.01682 9.60834 4.92952 10.4226 5.00453L10.4228 5.00455C11.0182 5.05917 11.5872 5.23315 12.137 5.50222L8.09302 5.32996Z" stroke="black" stroke-width="0.75"/>
<path d="M11.3022 9.99517L11.3386 9.99515M11.3022 9.99517L11.3085 9.99491L11.3096 9.99487H10.9635V9.99368L11.3385 9.98599C11.3329 9.19788 10.7433 8.53912 9.85123 8.56042L11.3386 9.99515M11.3022 9.99517L10.9635 9.99542C10.9627 9.40117 10.5329 8.91929 9.86025 8.93531L9.86018 8.93531C9.32959 8.94812 8.84717 9.41111 8.84717 10.0281C8.84717 10.5799 9.35093 11.0817 9.92362 11.0722M11.3022 9.99517L10.9639 10.0091C10.9876 10.5864 10.5226 11.0613 9.92362 11.0722M11.3386 9.99515C11.3707 10.7972 10.7238 11.4329 9.93007 11.4471M11.3386 9.99515L9.93007 11.4471M9.92362 11.0722C9.92367 11.0722 9.92373 11.0722 9.92379 11.0722L9.93007 11.4471M9.92362 11.0722C9.92353 11.0722 9.92343 11.0722 9.92334 11.0722L9.93007 11.4471" stroke="black" stroke-width="0.75"/>
</svg>
