<svg width="31" height="20" viewBox="0 0 31 20" fill="none" xmlns="http://www.w3.org/2000/svg">
<path d="M24.0814 6.43098L27.7614 3.88186V3.88492L28.5459 3.34207C28.6296 3.28421 28.7384 3.24291 28.8608 3.23032C28.9832 3.21773 29.1053 3.23532 29.211 3.27788L29.3977 2.81403L29.211 3.27788C29.3168 3.32044 29.3944 3.38293 29.4431 3.44814L29.8438 3.1491L29.4431 3.44814C29.4908 3.51213 29.5099 3.57686 29.51 3.63512L29.51 16.3618L29.51 16.3636C29.5102 16.4219 29.4914 16.4867 29.4439 16.5508C29.3954 16.6162 29.3179 16.6789 29.2122 16.7217C29.1063 16.7645 28.9841 16.7823 28.8614 16.7698C28.7388 16.7572 28.6297 16.7159 28.5459 16.6579L28.5458 16.6578L24.0814 13.5706V6.43098ZM1.90257 1.71259C2.80952 0.94305 4.05483 0.5 5.36715 0.5H16.0814C17.3938 0.5 18.6391 0.94305 19.546 1.71259C20.4505 2.48001 20.9386 3.50153 20.9386 4.54545V15.4545C20.9386 16.4985 20.4505 17.52 19.546 18.2874C18.6391 19.0569 17.3938 19.5 16.0814 19.5H5.36715C4.05483 19.5 2.80952 19.0569 1.90257 18.2874C0.998106 17.52 0.51001 16.4985 0.51001 15.4545V4.54545C0.51001 3.50153 0.998106 2.48001 1.90257 1.71259Z" stroke="black"/>
</svg>
