<svg width="20" height="20" viewBox="0 0 20 20" fill="none" xmlns="http://www.w3.org/2000/svg">
<path fill-rule="evenodd" clip-rule="evenodd" d="M0.324514 0.352664C0.53257 0.145164 0.814599 0.0286141 1.10865 0.0286141C1.4027 0.0286141 1.68473 0.145164 1.89279 0.352664L9.98567 8.43397L18.0786 0.352664C18.1801 0.2438 18.3026 0.156483 18.4388 0.0959223C18.5749 0.0353613 18.7218 0.00279744 18.8708 0.000172444C19.0198 -0.00245255 19.1678 0.0249151 19.306 0.0806437C19.4441 0.136372 19.5696 0.219319 19.675 0.324537C19.7804 0.429755 19.8634 0.555087 19.9192 0.693058C19.975 0.831028 20.0025 0.97881 19.9998 1.12759C19.9972 1.27636 19.9646 1.42309 19.9039 1.55901C19.8433 1.69493 19.7559 1.81725 19.6468 1.91869L11.5539 10L19.6468 18.0813C19.7559 18.1827 19.8433 18.3051 19.9039 18.441C19.9646 18.5769 19.9972 18.7236 19.9998 18.8724C20.0025 19.0212 19.975 19.169 19.9192 19.3069C19.8634 19.4449 19.7804 19.5702 19.675 19.6755C19.5696 19.7807 19.4441 19.8636 19.306 19.9194C19.1678 19.9751 19.0198 20.0025 18.8708 19.9998C18.7218 19.9972 18.5749 19.9646 18.4388 19.9041C18.3026 19.8435 18.1801 19.7562 18.0786 19.6473L9.98567 11.566L1.89279 19.6473C1.68244 19.8431 1.40422 19.9496 1.11676 19.9445C0.829286 19.9395 0.555008 19.8232 0.351705 19.6202C0.148402 19.4172 0.0319474 19.1433 0.0268753 18.8562C0.0218033 18.5692 0.128509 18.2914 0.324514 18.0813L8.4174 10L0.324514 1.91869C0.116717 1.71094 0 1.42931 0 1.13568C0 0.842048 0.116717 0.560422 0.324514 0.352664Z" fill="white"/>
</svg>
