<svg width="25" height="21" viewBox="0 0 25 21" fill="none" xmlns="http://www.w3.org/2000/svg">
<path fill-rule="evenodd" clip-rule="evenodd" d="M0 1.03512C0 0.760587 0.108649 0.497301 0.302046 0.303179C0.495443 0.109057 0.757746 0 1.03125 0H23.7188C23.9923 0 24.2546 0.109057 24.448 0.303179C24.6414 0.497301 24.75 0.760587 24.75 1.03512C24.75 1.30965 24.6414 1.57293 24.448 1.76706C24.2546 1.96118 23.9923 2.07023 23.7188 2.07023H1.03125C0.757746 2.07023 0.495443 1.96118 0.302046 1.76706C0.108649 1.57293 0 1.30965 0 1.03512ZM0 7.24582C0 6.97129 0.108649 6.708 0.302046 6.51388C0.495443 6.31976 0.757746 6.2107 1.03125 6.2107H23.7188C23.9923 6.2107 24.2546 6.31976 24.448 6.51388C24.6414 6.708 24.75 6.97129 24.75 7.24582C24.75 7.52035 24.6414 7.78364 24.448 7.97776C24.2546 8.17188 23.9923 8.28094 23.7188 8.28094H1.03125C0.757746 8.28094 0.495443 8.17188 0.302046 7.97776C0.108649 7.78364 0 7.52035 0 7.24582ZM0 13.4565C0 13.182 0.108649 12.9187 0.302046 12.7246C0.495443 12.5305 0.757746 12.4214 1.03125 12.4214H23.7188C23.9923 12.4214 24.2546 12.5305 24.448 12.7246C24.6414 12.9187 24.75 13.182 24.75 13.4565C24.75 13.7311 24.6414 13.9943 24.448 14.1885C24.2546 14.3826 23.9923 14.4916 23.7188 14.4916H1.03125C0.757746 14.4916 0.495443 14.3826 0.302046 14.1885C0.108649 13.9943 0 13.7311 0 13.4565ZM0 19.6672C0 19.3927 0.108649 19.1294 0.302046 18.9353C0.495443 18.7412 0.757746 18.6321 1.03125 18.6321H23.7188C23.9923 18.6321 24.2546 18.7412 24.448 18.9353C24.6414 19.1294 24.75 19.3927 24.75 19.6672C24.75 19.9418 24.6414 20.205 24.448 20.3992C24.2546 20.5933 23.9923 20.7023 23.7188 20.7023H1.03125C0.757746 20.7023 0.495443 20.5933 0.302046 20.3992C0.108649 20.205 0 19.9418 0 19.6672Z" fill="white"/>
</svg>
