<svg width="17" height="13" viewBox="0 0 17 13" fill="none" xmlns="http://www.w3.org/2000/svg">
<path d="M14.5832 0.12738H1.99167C1.57454 0.129896 1.17547 0.29062 0.881949 0.574316C0.58843 0.858012 0.424413 1.24153 0.425856 1.64079L0.417725 10.7213C0.417958 11.1214 0.583629 11.5051 0.878544 11.7887C1.17346 12.0723 1.57365 12.2326 1.99167 12.2347H14.5832C15.0013 12.2326 15.4015 12.0723 15.6964 11.7887C15.9913 11.5051 16.157 11.1214 16.1572 10.7213V1.64079C16.157 1.24067 15.9913 0.856909 15.6964 0.573337C15.4015 0.289765 15.0013 0.129437 14.5832 0.12738ZM14.5832 3.1542L8.28746 6.93773L1.99167 3.1542V1.64079L8.28746 5.42432L14.5832 1.64079V3.1542Z" fill="#575757"/>
</svg>
