<svg width="22" height="22" viewBox="0 0 22 22" fill="none" xmlns="http://www.w3.org/2000/svg">
<g clip-path="url(#clip0_1501_67)">
<path d="M21.2669 11.0778C21.2669 5.26039 16.5509 0.544464 10.7335 0.544464C4.91613 0.544464 0.200195 5.26039 0.200195 11.0778C0.200195 16.3352 4.05206 20.693 9.0877 21.4832V14.1226H6.41322V11.0778H9.0877V8.75717C9.0877 6.11726 10.6603 4.65905 13.0663 4.65905C14.2184 4.65905 15.4242 4.86478 15.4242 4.86478V7.45696H14.096C12.7875 7.45696 12.3794 8.26898 12.3794 9.1028V11.0778H15.3007L14.8337 14.1226H12.3794V21.4832C17.415 20.693 21.2669 16.3352 21.2669 11.0778Z" fill="#1877F2"/>
<path d="M14.8336 14.1226L15.3006 11.0778H12.3792V9.1028C12.3792 8.2698 12.7874 7.45696 14.0958 7.45696H15.424V4.86478C15.424 4.86478 14.2187 4.65905 13.0662 4.65905C10.6602 4.65905 9.08757 6.11725 9.08757 8.75717V11.0778H6.41309V14.1226H9.08757V21.4832C10.1782 21.6538 11.2886 21.6538 12.3792 21.4832V14.1226H14.8336Z" fill="white"/>
</g>
<defs>
<clipPath id="clip0_1501_67">
<rect width="21.0667" height="21.0667" fill="white" transform="translate(0.200195 0.544464)"/>
</clipPath>
</defs>
</svg>
