<svg width="22" height="21" viewBox="0 0 22 21" fill="none" xmlns="http://www.w3.org/2000/svg">
<path d="M11.11 17.1691L11 17.2796L10.879 17.1691C5.654 12.4104 2.2 9.26361 2.2 6.07269C2.2 3.86444 3.85 2.20825 6.05 2.20825C7.744 2.20825 9.394 3.31238 9.977 4.81399H12.023C12.606 3.31238 14.256 2.20825 15.95 2.20825C18.15 2.20825 19.8 3.86444 19.8 6.07269C19.8 9.26361 16.346 12.4104 11.11 17.1691ZM15.95 0C14.036 0 12.199 0.894341 11 2.29658C9.801 0.894341 7.964 0 6.05 0C2.662 0 0 2.66094 0 6.07269C0 10.2352 3.74 13.647 9.405 18.8032L11 20.2607L12.595 18.8032C18.26 13.647 22 10.2352 22 6.07269C22 2.66094 19.338 0 15.95 0Z" fill="white"/>
</svg>
