<svg width="22" height="20" viewBox="0 0 22 20" fill="none" xmlns="http://www.w3.org/2000/svg">
<path d="M9.60796 1.36525L9.60774 1.36547L0.921528 10.0517C0.874647 10.0959 0.812463 10.1203 0.747946 10.1198C0.682396 10.1193 0.619681 10.093 0.573307 10.0467C0.526933 10.0003 0.500611 9.93764 0.500011 9.87209C0.49942 9.80763 0.523749 9.74548 0.567843 9.69858L9.25385 1.01257L8.90029 0.659019L9.25385 1.01257C9.41635 0.850066 9.60927 0.72116 9.82159 0.633213C10.0339 0.545266 10.2615 0.5 10.4913 0.5C10.7211 0.5 10.9487 0.545266 11.161 0.633213C11.3733 0.721157 11.5662 0.850056 11.7287 1.01255C11.7287 1.01256 11.7287 1.01256 11.7287 1.01257L20.4177 9.70255L20.424 9.7088L20.4304 9.71483C20.455 9.73771 20.4747 9.76531 20.4884 9.79598C20.502 9.82664 20.5094 9.85974 20.51 9.89332C20.5106 9.92689 20.5044 9.96023 20.4918 9.99136C20.4792 10.0225 20.4605 10.0508 20.4368 10.0745C20.413 10.0982 20.3848 10.117 20.3536 10.1295C20.3225 10.1421 20.2892 10.1483 20.2556 10.1477C20.222 10.1471 20.1889 10.1397 20.1582 10.1261C20.1276 10.1124 20.1 10.0927 20.0771 10.0682L20.0711 10.0617L20.0648 10.0555L11.3748 1.36547L11.3746 1.36525C11.1402 1.13116 10.8225 0.99968 10.4913 0.99968C10.16 0.99968 9.84233 1.13116 9.60796 1.36525Z" fill="black" stroke="black"/>
<path d="M2.74121 11.7681L10.4903 4.01717L18.2412 11.7681V17.754C18.2412 18.5129 17.6251 19.129 16.8662 19.129H13.4912C13.4249 19.129 13.3613 19.1027 13.3144 19.0558C13.2676 19.0089 13.2412 18.9453 13.2412 18.879V14.379C13.2412 14.0475 13.1095 13.7296 12.8751 13.4951C12.6407 13.2607 12.3227 13.129 11.9912 13.129H8.99121C8.65969 13.129 8.34175 13.2607 8.10733 13.4951C7.87291 13.7296 7.74121 14.0475 7.74121 14.379V18.879C7.74121 18.9453 7.71487 19.0089 7.66799 19.0558C7.6211 19.1027 7.55751 19.129 7.49121 19.129H4.11621C3.75154 19.129 3.4018 18.9842 3.14394 18.7263C2.88608 18.4684 2.74121 18.1187 2.74121 17.754V11.7681Z" fill="black" stroke="black"/>
</svg>
