<svg width="24" height="24" viewBox="0 0 24 24" fill="none" xmlns="http://www.w3.org/2000/svg">
<path d="M12 18.6667C12.3778 18.6667 12.6947 18.5387 12.9507 18.2827C13.2067 18.0267 13.3342 17.7102 13.3333 17.3333C13.3333 16.9556 13.2053 16.6387 12.9493 16.3827C12.6933 16.1267 12.3769 15.9991 12 16C11.6222 16 11.3053 16.128 11.0493 16.384C10.7933 16.64 10.6658 16.9564 10.6667 17.3333C10.6667 17.7111 10.7947 18.028 11.0507 18.284C11.3067 18.54 11.6231 18.6676 12 18.6667ZM12 13.3333C12.3778 13.3333 12.6947 13.2053 12.9507 12.9493C13.2067 12.6933 13.3342 12.3769 13.3333 12V6.66667C13.3333 6.28889 13.2053 5.972 12.9493 5.716C12.6933 5.46 12.3769 5.33244 12 5.33333C11.6222 5.33333 11.3053 5.46133 11.0493 5.71733C10.7933 5.97333 10.6658 6.28978 10.6667 6.66667V12C10.6667 12.3778 10.7947 12.6947 11.0507 12.9507C11.3067 13.2067 11.6231 13.3342 12 13.3333ZM8.1 24C7.74444 24 7.40578 23.9333 7.084 23.8C6.76222 23.6667 6.47867 23.4778 6.23333 23.2333L0.766667 17.7667C0.522222 17.5222 0.333333 17.2387 0.2 16.916C0.0666668 16.5933 0 16.2547 0 15.9V8.1C0 7.74444 0.0666668 7.40578 0.2 7.084C0.333333 6.76222 0.522222 6.47867 0.766667 6.23333L6.23333 0.766667C6.47778 0.522222 6.76133 0.333333 7.084 0.2C7.40667 0.0666668 7.74533 0 8.1 0H15.9C16.2556 0 16.5947 0.0666668 16.9173 0.2C17.24 0.333333 17.5231 0.522222 17.7667 0.766667L23.2333 6.23333C23.4778 6.47778 23.6667 6.76133 23.8 7.084C23.9333 7.40667 24 7.74533 24 8.1V15.9C24 16.2556 23.9333 16.5947 23.8 16.9173C23.6667 17.24 23.4778 17.5231 23.2333 17.7667L17.7667 23.2333C17.5222 23.4778 17.2387 23.6667 16.916 23.8C16.5933 23.9333 16.2547 24 15.9 24H8.1ZM8.13333 21.3333H15.8667L21.3333 15.8667V8.13333L15.8667 2.66667H8.13333L2.66667 8.13333V15.8667L8.13333 21.3333Z" fill="white"/>
</svg>
