<svg width="67" height="67" viewBox="0 0 67 67" fill="none" xmlns="http://www.w3.org/2000/svg">
<circle cx="33.4304" cy="33.4304" r="33.4304" fill="#CFBA00"/>
<path d="M28.4531 23H24.8164C23.8164 23 23 23.8164 23 24.8164V41.1797C23 42.1836 23.8164 43 24.8164 43H28.4531C29.457 43 30.2695 42.1836 30.2695 41.1836V24.8164C30.2734 23.8164 29.457 23 28.4531 23ZM41.1836 23H37.5469C36.543 23 35.7305 23.8164 35.7305 24.8164V41.1797C35.7305 42.1836 36.5469 42.9961 37.5469 42.9961H41.1836C42.1875 42.9961 43 42.1797 43 41.1797V24.8164C43 23.8164 42.1836 23 41.1836 23Z" fill="#777777"/>
</svg>
