<svg width="17" height="20" viewBox="0 0 17 20" fill="none" xmlns="http://www.w3.org/2000/svg">
<path d="M11.635 4C11.635 6.00203 10.012 7.625 8.01001 7.625C6.00798 7.625 4.38501 6.00203 4.38501 4C4.38501 1.99797 6.00798 0.375 8.01001 0.375C10.012 0.375 11.635 1.99797 11.635 4Z" stroke="black" stroke-width="0.75"/>
<path d="M15.635 15.5C15.635 16.7751 15.6149 17.7057 14.7732 18.3911C14.3379 18.7456 13.6532 19.0576 12.5606 19.2788C11.4696 19.4996 9.99712 19.625 8.01001 19.625C6.0229 19.625 4.55038 19.4996 3.45941 19.2788C2.36678 19.0576 1.68208 18.7456 1.24681 18.3911C0.405164 17.7057 0.38501 16.7751 0.38501 15.5C0.38501 14.4532 1.14346 13.4289 2.53711 12.645C3.91899 11.8676 5.85323 11.375 8.01001 11.375C10.1668 11.375 12.101 11.8676 13.4829 12.645C14.8766 13.4289 15.635 14.4532 15.635 15.5Z" stroke="black" stroke-width="0.75"/>
</svg>
