<svg width="14" height="14" viewBox="0 0 14 14" fill="none" xmlns="http://www.w3.org/2000/svg">
<path d="M7.28698 7.69903C8.02779 7.69903 8.75197 7.47935 9.36793 7.06778C9.98389 6.6562 10.464 6.07122 10.7475 5.3868C11.031 4.70238 11.1051 3.94926 10.9606 3.22269C10.8161 2.49611 10.4594 1.82871 9.93553 1.30487C9.41169 0.781042 8.74429 0.424307 8.01771 0.279782C7.29114 0.135257 6.53802 0.209432 5.8536 0.492929C5.16918 0.776425 4.5842 1.25651 4.17262 1.87247C3.76105 2.48843 3.54138 3.21261 3.54138 3.95342C3.54161 4.94674 3.93631 5.89932 4.6387 6.60171C5.34108 7.30409 6.29366 7.69879 7.28698 7.69903ZM10.6167 8.53168H9.18353C8.589 8.80582 7.94211 8.94778 7.28742 8.94778C6.63274 8.94778 5.98584 8.80582 5.39132 8.53168H3.95814C3.52084 8.53156 3.08781 8.61761 2.68377 8.7849C2.27974 8.95219 1.91263 9.19745 1.60341 9.50667C1.2942 9.81589 1.04894 10.183 0.881643 10.587C0.71435 10.9911 0.628303 11.4241 0.628418 11.8614V12.2773C0.628418 12.6084 0.75996 12.926 0.994106 13.1601C1.22825 13.3943 1.54582 13.5258 1.87695 13.5258H12.6979C13.029 13.5258 13.3466 13.3943 13.5807 13.1601C13.8149 12.926 13.9464 12.6084 13.9464 12.2773V11.8614C13.9465 11.4241 13.8605 10.9911 13.6932 10.587C13.5259 10.183 13.2806 9.81589 12.9714 9.50667C12.6622 9.19745 12.2951 8.95219 11.8911 8.7849C11.487 8.61761 11.054 8.53156 10.6167 8.53168Z" fill="#575757"/>
</svg>
