<svg width="17" height="17" viewBox="0 0 17 17" fill="none" xmlns="http://www.w3.org/2000/svg">
<path d="M16.8214 1.76143C16.8213 1.5188 16.7546 1.28085 16.6284 1.0736C16.5022 0.866348 16.3215 0.697782 16.1059 0.586337C15.8903 0.474891 15.6482 0.424858 15.4061 0.441711C15.164 0.458564 14.9312 0.541654 14.7332 0.681892L5.47021 7.24773C5.29815 7.36937 5.15763 7.53033 5.06035 7.71723C4.96307 7.90413 4.91185 8.11155 4.91094 8.32223C4.91003 8.53292 4.95947 8.74077 5.05514 8.9285C5.15081 9.11622 5.28994 9.27839 5.46095 9.40151L14.7239 16.0652C14.9216 16.2077 15.1547 16.2929 15.3976 16.3114C15.6406 16.3299 15.8839 16.281 16.1008 16.17C16.3177 16.0591 16.4998 15.8904 16.6269 15.6826C16.7541 15.4748 16.8213 15.2359 16.8214 14.9923V1.76143ZM0.941935 1.0973C0.941935 0.921865 1.01164 0.753616 1.13573 0.629564C1.25981 0.505513 1.4281 0.435822 1.60358 0.435822C1.77906 0.435822 1.94735 0.505513 2.07143 0.629564C2.19551 0.753616 2.26522 0.921865 2.26522 1.0973V15.6498C2.26522 15.8253 2.19551 15.9935 2.07143 16.1176C1.94735 16.2416 1.77906 16.3113 1.60358 16.3113C1.4281 16.3113 1.25981 16.2416 1.13573 16.1176C1.01164 15.9935 0.941935 15.8253 0.941935 15.6498V1.0973Z" fill="url(#paint0_linear_1302_1193)"/>
<defs>
<linearGradient id="paint0_linear_1302_1193" x1="8.88164" y1="0.435822" x2="8.88164" y2="16.3152" gradientUnits="userSpaceOnUse">
<stop stop-color="white"/>
<stop offset="1" stop-color="#FDFDFD"/>
</linearGradient>
</defs>
</svg>
