<svg width="22" height="31" viewBox="0 0 22 31" fill="none" xmlns="http://www.w3.org/2000/svg">
<path fill-rule="evenodd" clip-rule="evenodd" d="M8.00001 8.00001H4.00001C2.93914 8.00001 1.92172 8.42144 1.17157 9.17159C0.421428 9.92173 0 10.9391 0 12V22C0 23.0609 0.421428 24.0783 1.17157 24.8285C1.92172 25.5786 2.93914 26 4.00001 26H14C15.0609 26 16.0783 25.5786 16.8285 24.8285C17.5786 24.0783 18 23.0609 18 22V12C18 10.9391 17.5786 9.92173 16.8285 9.17159C16.0783 8.42144 15.0609 8.00001 14 8.00001H10V1C10 0.734785 9.89466 0.48043 9.70712 0.292894C9.51958 0.105357 9.26523 0 9.00001 0C8.7348 0 8.48044 0.105357 8.29291 0.292894C8.10537 0.48043 8.00001 0.734785 8.00001 1V8.00001ZM8.00001 8.00001H10V15.5867L12.2934 13.2934C12.3849 13.1951 12.4953 13.1163 12.618 13.0616C12.7406 13.007 12.8731 12.9776 13.0073 12.9752C13.1416 12.9729 13.275 12.9976 13.3995 13.0479C13.524 13.0981 13.6371 13.173 13.7321 13.268C13.827 13.3629 13.9019 13.476 13.9522 13.6006C14.0025 13.7251 14.0272 13.8584 14.0248 13.9927C14.0224 14.127 13.993 14.2594 13.9384 14.3821C13.8837 14.5047 13.8049 14.6151 13.7067 14.7067L9.70668 18.7067C9.51918 18.894 9.26501 18.9991 9.00001 18.9991C8.73501 18.9991 8.48085 18.894 8.29335 18.7067L4.29334 14.7067C4.19509 14.6151 4.11629 14.5047 4.06163 14.3821C4.00697 14.2594 3.97759 14.127 3.97522 13.9927C3.97285 13.8584 3.99755 13.7251 4.04784 13.6006C4.09814 13.476 4.173 13.3629 4.26795 13.268C4.36291 13.173 4.47602 13.0981 4.60054 13.0479C4.72506 12.9976 4.85843 12.9729 4.9927 12.9752C5.12697 12.9776 5.25939 13.007 5.38206 13.0616C5.50472 13.1163 5.61512 13.1951 5.70667 13.2934L8.00001 15.5867V8.00001Z" fill="white"/>
<path d="M4.53467 28.332C4.88574 28.9404 5.39087 29.4455 5.9992 29.7966C6.60754 30.1477 7.29762 30.3324 8.00001 30.332H18C19.0609 30.332 20.0783 29.9106 20.8285 29.1605C21.5786 28.4103 22 27.3929 22 26.332V16.332C22 14.852 21.196 13.5587 20 12.8667V22.332C20 23.9233 19.3679 25.4495 18.2427 26.5747C17.1174 27.6999 15.5913 28.332 14 28.332H4.53467Z" fill="white"/>
</svg>
