<svg width="17" height="17" viewBox="0 0 17 17" fill="none" xmlns="http://www.w3.org/2000/svg">
<path d="M0.421448 1.76143C0.421457 1.5188 0.488204 1.28085 0.614389 1.0736C0.740574 0.866348 0.921337 0.697782 1.13691 0.586337C1.35248 0.474891 1.59455 0.424858 1.83665 0.441711C2.07875 0.458564 2.31155 0.541654 2.50959 0.681892L11.7726 7.24773C11.9447 7.36937 12.0852 7.53033 12.1825 7.71723C12.2797 7.90413 12.331 8.11155 12.3319 8.32223C12.3328 8.53292 12.2833 8.74077 12.1877 8.9285C12.092 9.11622 11.9529 9.27839 11.7818 9.40151L2.51885 16.0652C2.32124 16.2077 2.08812 16.2929 1.84516 16.3114C1.60221 16.3299 1.35888 16.281 1.14197 16.17C0.925059 16.0591 0.743005 15.8904 0.61587 15.6826C0.488735 15.4748 0.421456 15.2359 0.421448 14.9923V1.76143ZM16.3009 1.0973C16.3009 0.921865 16.2312 0.753616 16.1071 0.629564C15.983 0.505513 15.8147 0.435822 15.6392 0.435822C15.4637 0.435822 15.2955 0.505513 15.1714 0.629564C15.0473 0.753616 14.9776 0.921865 14.9776 1.0973V15.6498C14.9776 15.8253 15.0473 15.9935 15.1714 16.1176C15.2955 16.2416 15.4637 16.3113 15.6392 16.3113C15.8147 16.3113 15.983 16.2416 16.1071 16.1176C16.2312 15.9935 16.3009 15.8253 16.3009 15.6498V1.0973Z" fill="url(#paint0_linear_1302_1192)"/>
<defs>
<linearGradient id="paint0_linear_1302_1192" x1="8.36116" y1="0.435822" x2="8.36116" y2="16.3152" gradientUnits="userSpaceOnUse">
<stop stop-color="white"/>
<stop offset="1" stop-color="#FDFDFD"/>
</linearGradient>
</defs>
</svg>
