<svg width="33" height="31" viewBox="0 0 33 31" fill="none" xmlns="http://www.w3.org/2000/svg">
<path d="M16.5 29.166C16.4639 29.166 16.4287 29.1593 16.3961 29.1468L16.3721 29.1311L16.3196 29.1089C16.1132 28.997 15.9084 28.8821 15.7053 28.7644C13.1908 27.2927 10.8412 25.5642 8.6952 23.6076C4.86719 20.0895 1 15.0297 1 8.91636C1 4.64228 4.66679 1.16613 9.20277 1.16615L9.20759 1.16612C10.4588 1.16009 11.6948 1.43198 12.8235 1.96098C13.9522 2.48996 14.9439 3.2621 15.7256 4.21891L16.5 5.16678L17.2744 4.21891C18.0563 3.2619 19.0482 2.48964 20.1771 1.96066C21.3061 1.43165 22.5424 1.15986 23.7939 1.16613H23.7989C28.3331 1.16613 32 4.64216 32 8.91636C32 15.0315 28.1326 20.0914 24.3049 23.6059C22.1588 25.5626 19.809 27.2912 17.2944 28.763C17.0899 28.882 16.8837 28.9982 16.6758 29.1114L16.6332 29.1336C16.5929 29.1546 16.5472 29.166 16.5 29.166Z" stroke="white" stroke-width="2"/>
</svg>
