<svg width="5" height="28" viewBox="0 0 5 28" fill="none" xmlns="http://www.w3.org/2000/svg">
<path d="M2.5 16.7374C2.00555 16.7374 1.5222 16.5866 1.11107 16.3041C0.699952 16.0215 0.379521 15.6199 0.190302 15.1501C0.00108316 14.6802 -0.0484251 14.1632 0.0480379 13.6644C0.144501 13.1655 0.382603 12.7074 0.732235 12.3477C1.08187 11.9881 1.52732 11.7432 2.01227 11.644C2.49723 11.5448 2.99989 11.5957 3.45671 11.7903C3.91352 11.985 4.30397 12.3145 4.57867 12.7374C4.85338 13.1603 5 13.6574 5 14.166C5 14.848 4.73661 15.5021 4.26777 15.9843C3.79893 16.4665 3.16304 16.7374 2.5 16.7374ZM5 3.23745C5 2.72887 4.85338 2.23171 4.57867 1.80884C4.30397 1.38597 3.91352 1.05638 3.45671 0.861755C2.99989 0.66713 2.49723 0.616207 2.01228 0.715426C1.52732 0.814645 1.08187 1.05955 0.732235 1.41917C0.382604 1.77879 0.144501 2.23698 0.0480384 2.73578C-0.0484247 3.23459 0.00108363 3.75162 0.190303 4.22149C0.379522 4.69135 0.699952 5.09296 1.11107 5.37551C1.5222 5.65806 2.00555 5.80887 2.5 5.80887C3.16304 5.80887 3.79893 5.53796 4.26777 5.05572C4.73661 4.57348 5 3.91943 5 3.23745ZM5 25.0946C5 24.586 4.85338 24.0888 4.57867 23.666C4.30397 23.2431 3.91352 22.9135 3.45671 22.7189C2.99989 22.5243 2.49723 22.4733 2.01227 22.5726C1.52732 22.6718 1.08187 22.9167 0.732234 23.2763C0.382603 23.6359 0.1445 24.0941 0.0480374 24.5929C-0.0484256 25.0917 0.00108268 25.6088 0.190302 26.0786C0.379521 26.5485 0.699951 26.9501 1.11107 27.2327C1.5222 27.5152 2.00555 27.666 2.5 27.666C3.16304 27.666 3.79892 27.3951 4.26777 26.9129C4.73661 26.4306 5 25.7766 5 25.0946Z" fill="white"/>
</svg>
