<svg width="24" height="25" viewBox="0 0 24 25" fill="none" xmlns="http://www.w3.org/2000/svg">
<path fill-rule="evenodd" clip-rule="evenodd" d="M15.75 4.66602C15.7499 3.96865 15.9928 3.29303 16.4369 2.75534C16.881 2.21765 17.4986 1.85147 18.1834 1.71977C18.8682 1.58806 19.5776 1.69905 20.1894 2.03366C20.8013 2.36826 21.2775 2.90558 21.5361 3.55323C21.7947 4.20088 21.8196 4.9184 21.6065 5.58243C21.3934 6.24645 20.9557 6.8155 20.3685 7.19174C19.7813 7.56797 19.0814 7.72789 18.3891 7.64399C17.6968 7.56009 17.0553 7.23762 16.575 6.73202L8.15399 11.411C8.28265 11.9061 8.28265 12.4259 8.15399 12.921L16.575 17.6C17.0782 17.0709 17.7572 16.7435 18.4846 16.6792C19.2119 16.6149 19.9378 16.8181 20.5261 17.2507C21.1144 17.6833 21.5247 18.3156 21.6801 19.0291C21.8355 19.7426 21.7253 20.4883 21.3702 21.1263C21.0151 21.7644 20.4395 22.2511 19.7513 22.4951C19.063 22.7391 18.3094 22.7237 17.6317 22.4518C16.954 22.1799 16.3987 21.6702 16.07 21.0182C15.7412 20.3661 15.6616 19.6166 15.846 18.91L7.42499 14.232C7.01184 14.667 6.47776 14.9681 5.89174 15.0965C5.30571 15.2249 4.69465 15.1746 4.13748 14.9522C3.58032 14.7298 3.10263 14.3454 2.76613 13.8488C2.42962 13.3521 2.24976 12.7659 2.24976 12.166C2.24976 11.5661 2.42962 10.98 2.76613 10.4833C3.10263 9.98663 3.58032 9.60226 4.13748 9.37983C4.69465 9.15741 5.30571 9.10714 5.89174 9.23552C6.47776 9.3639 7.01184 9.66503 7.42499 10.1L15.846 5.42102C15.7821 5.17445 15.7498 4.92074 15.75 4.66602Z" fill="url(#paint0_linear_8_120)"/>
<defs>
<linearGradient id="paint0_linear_8_120" x1="11.9999" y1="1.66577" x2="11.9999" y2="22.6675" gradientUnits="userSpaceOnUse">
<stop stop-color="white"/>
<stop offset="1" stop-color="#FDFDFD"/>
</linearGradient>
</defs>
</svg>
