<svg width="24" height="20" viewBox="0 0 24 20" fill="none" xmlns="http://www.w3.org/2000/svg">
<path fill-rule="evenodd" clip-rule="evenodd" d="M11.084 1.09603C11.5653 1.29537 11.879 1.76498 11.879 2.28588V17.7406C11.879 18.2615 11.5653 18.7311 11.084 18.9304C10.6028 19.1298 10.0488 19.0196 9.68047 18.6512L4.90613 13.8769H1.57592C0.864633 13.8769 0.288025 13.3003 0.288025 12.589V7.43744C0.288025 6.72616 0.864633 6.14955 1.57592 6.14955H4.90613L9.68047 1.37521C10.0488 1.00687 10.6028 0.896686 11.084 1.09603Z" fill="url(#paint0_linear_1302_1196)"/>
<path fill-rule="evenodd" clip-rule="evenodd" d="M17.8765 0.906359C18.3795 0.403406 19.1949 0.403406 19.6979 0.906359C22.0271 3.23557 23.47 6.45706 23.47 10.0131C23.47 13.5692 22.0271 16.7907 19.6979 19.1199C19.1949 19.6228 18.3795 19.6228 17.8765 19.1199C17.3736 18.6169 17.3736 17.8015 17.8765 17.2985C19.7425 15.4326 20.8943 12.8586 20.8943 10.0131C20.8943 7.16763 19.7425 4.59362 17.8765 2.72771C17.3736 2.22476 17.3736 1.40931 17.8765 0.906359ZM14.2338 4.54906C14.7368 4.04611 15.5522 4.04611 16.0552 4.54906C16.7325 5.22634 17.2851 6.02958 17.6749 6.9217C18.0893 7.87003 18.3185 8.9165 18.3185 10.0131C18.3185 12.1466 17.4522 14.0802 16.0552 15.4772C15.5522 15.9801 14.7368 15.9801 14.2338 15.4772C13.7309 14.9742 13.7309 14.1588 14.2338 13.6558C15.1675 12.7222 15.7427 11.436 15.7427 10.0131C15.7427 9.27808 15.5895 8.58221 15.3146 7.95297C15.0553 7.35959 14.6869 6.82343 14.2338 6.37042C13.7309 5.86746 13.7309 5.05202 14.2338 4.54906Z" fill="url(#paint1_linear_1302_1196)"/>
<defs>
<linearGradient id="paint0_linear_1302_1196" x1="11.879" y1="0.529144" x2="11.879" y2="19.4971" gradientUnits="userSpaceOnUse">
<stop stop-color="white"/>
<stop offset="1" stop-color="#FDFDFD"/>
</linearGradient>
<linearGradient id="paint1_linear_1302_1196" x1="11.879" y1="0.529144" x2="11.879" y2="19.4971" gradientUnits="userSpaceOnUse">
<stop stop-color="white"/>
<stop offset="1" stop-color="#FDFDFD"/>
</linearGradient>
</defs>
</svg>
