<svg width="19" height="19" viewBox="0 0 19 19" fill="none" xmlns="http://www.w3.org/2000/svg">
<path d="M9.5 14.7778C9.79907 14.7778 10.0499 14.6764 10.2526 14.4738C10.4553 14.2711 10.5563 14.0206 10.5556 13.7222C10.5556 13.4231 10.4542 13.1723 10.2516 12.9696C10.0489 12.7669 9.79837 12.666 9.5 12.6667C9.20093 12.6667 8.95006 12.768 8.74739 12.9707C8.54472 13.1733 8.44374 13.4239 8.44444 13.7222C8.44444 14.0213 8.54578 14.2722 8.74844 14.4748C8.95111 14.6775 9.20163 14.7785 9.5 14.7778ZM9.5 10.5556C9.79907 10.5556 10.0499 10.4542 10.2526 10.2516C10.4553 10.0489 10.5563 9.79837 10.5556 9.5V5.27778C10.5556 4.9787 10.4542 4.72783 10.2516 4.52517C10.0489 4.3225 9.79837 4.22152 9.5 4.22222C9.20093 4.22222 8.95006 4.32356 8.74739 4.52622C8.54472 4.72889 8.44374 4.97941 8.44444 5.27778V9.5C8.44444 9.79907 8.54578 10.0499 8.74844 10.2526C8.95111 10.4553 9.20163 10.5563 9.5 10.5556ZM6.4125 19C6.13102 19 5.86291 18.9472 5.60817 18.8417C5.35343 18.7361 5.12894 18.5866 4.93472 18.3931L0.606945 14.0653C0.413426 13.8718 0.263889 13.6473 0.158333 13.3918C0.0527779 13.1364 0 12.8683 0 12.5875V6.4125C0 6.13102 0.0527779 5.86291 0.158333 5.60817C0.263889 5.35343 0.413426 5.12894 0.606945 4.93472L4.93472 0.606945C5.12824 0.413426 5.35272 0.263889 5.60817 0.158333C5.86361 0.0527779 6.13172 0 6.4125 0H12.5875C12.869 0 13.1374 0.0527779 13.3929 0.158333C13.6483 0.263889 13.8725 0.413426 14.0653 0.606945L18.3931 4.93472C18.5866 5.12824 18.7361 5.35272 18.8417 5.60817C18.9472 5.86361 19 6.13172 19 6.4125V12.5875C19 12.869 18.9472 13.1374 18.8417 13.3929C18.7361 13.6483 18.5866 13.8725 18.3931 14.0653L14.0653 18.3931C13.8718 18.5866 13.6473 18.7361 13.3918 18.8417C13.1364 18.9472 12.8683 19 12.5875 19H6.4125ZM6.43889 16.8889H12.5611L16.8889 12.5611V6.43889L12.5611 2.11111H6.43889L2.11111 6.43889V12.5611L6.43889 16.8889Z" fill="white"/>
</svg>
