<svg width="19" height="19" viewBox="0 0 19 19" fill="none" xmlns="http://www.w3.org/2000/svg">
<path d="M7.26286 4.2278L5.85714 2.80495C6.17155 2.0064 6.71906 1.32098 7.4284 0.83789C8.13774 0.354804 8.97607 0.0964235 9.83429 0.0963745C12.2 0.0963745 14.12 2.01637 14.12 4.38209V6.09637H14.9771C15.4318 6.09637 15.8678 6.27699 16.1893 6.59848C16.5108 6.91997 16.6914 7.356 16.6914 7.81066V13.6392L9.14857 6.09637H12.4057V4.38209C12.4057 2.95923 11.2571 1.81066 9.83429 1.81066C8.47143 1.81066 7.35714 2.88209 7.26286 4.2278ZM18.5 17.6335L17.4114 18.7221L16.2286 17.5392C15.92 17.8821 15.4743 18.0964 14.9771 18.0964H4.69143C3.74 18.0964 2.97714 17.3335 2.97714 16.3821V7.81066C2.97714 7.356 3.15775 6.91997 3.47925 6.59848C3.80074 6.27699 4.23677 6.09637 4.69143 6.09637H4.78571L0.5 1.81066L1.59714 0.722089L18.5 17.6335ZM11.42 12.7307L9.2 10.5107C8.54857 10.7592 8.12 11.3764 8.12 12.0964C8.12 12.551 8.30061 12.9871 8.6221 13.3086C8.94359 13.63 9.37963 13.8107 9.83429 13.8107C10.5543 13.8107 11.1714 13.3821 11.42 12.7307Z" fill="white"/>
</svg>
