<svg width="17" height="25" viewBox="0 0 17 25" fill="none" xmlns="http://www.w3.org/2000/svg">
<path fill-rule="evenodd" clip-rule="evenodd" d="M7.55556 7.69231H3.77778C2.77585 7.69231 1.81496 8.09753 1.10649 8.81882C0.398015 9.54011 0 10.5184 0 11.5385V21.1538C0 22.1739 0.398015 23.1522 1.10649 23.8735C1.81496 24.5948 2.77585 25 3.77778 25H13.2222C14.2242 25 15.185 24.5948 15.8935 23.8735C16.602 23.1522 17 22.1739 17 21.1538V11.5385C17 10.5184 16.602 9.54011 15.8935 8.81882C15.185 8.09753 14.2242 7.69231 13.2222 7.69231H9.44444V0.961538C9.44444 0.706523 9.34494 0.461952 9.16782 0.281628C8.9907 0.101305 8.75048 0 8.5 0C8.24952 0 8.00929 0.101305 7.83218 0.281628C7.65506 0.461952 7.55556 0.706523 7.55556 0.961538V7.69231ZM7.55556 7.69231H9.44444V14.9872L11.6104 12.7821C11.6968 12.6876 11.8011 12.6118 11.917 12.5593C12.0328 12.5067 12.1579 12.4784 12.2847 12.4762C12.4115 12.4739 12.5374 12.4976 12.655 12.546C12.7726 12.5944 12.8795 12.6663 12.9692 12.7576C13.0588 12.8489 13.1295 12.9577 13.177 13.0774C13.2245 13.1972 13.2479 13.3254 13.2456 13.4545C13.2434 13.5836 13.2156 13.7109 13.164 13.8289C13.1124 13.9468 13.038 14.053 12.9452 14.141L9.16741 17.9872C8.99032 18.1672 8.75028 18.2684 8.5 18.2684C8.24972 18.2684 8.00968 18.1672 7.83259 17.9872L4.05481 14.141C3.96202 14.053 3.8876 13.9468 3.83598 13.8289C3.78436 13.7109 3.7566 13.5836 3.75437 13.4545C3.75213 13.3254 3.77546 13.1972 3.82296 13.0774C3.87046 12.9577 3.94116 12.8489 4.03084 12.7576C4.12052 12.6663 4.22735 12.5944 4.34495 12.546C4.46255 12.4976 4.58851 12.4739 4.71532 12.4762C4.84214 12.4784 4.9672 12.5067 5.08305 12.5593C5.1989 12.6118 5.30317 12.6876 5.38963 12.7821L7.55556 14.9872V7.69231Z" fill="white"/>
</svg>
