<svg width="17" height="18" viewBox="0 0 17 18" fill="none" xmlns="http://www.w3.org/2000/svg">
<path d="M12.5199 0.751303C12.6698 0.764771 12.7354 0.947938 12.6276 1.05479L5.15726 8.52514C5.07287 8.60958 5.01245 8.71494 4.98218 8.83042L4.0843 12.2693C4.05466 12.3829 4.05526 12.5024 4.08603 12.6157C4.11681 12.729 4.17669 12.8324 4.25974 12.9154C4.34279 12.9985 4.44611 13.0583 4.55945 13.0891C4.67279 13.1199 4.79221 13.1205 4.90586 13.0909L8.34384 12.193C8.4594 12.1624 8.56475 12.1017 8.64912 12.017L16.2254 4.44069C16.2491 4.41635 16.2793 4.39932 16.3124 4.3916C16.3455 4.38388 16.3801 4.38581 16.4121 4.39714C16.4441 4.40848 16.4722 4.42875 16.4931 4.45557C16.5139 4.48238 16.5267 4.5146 16.5298 4.54843C16.845 7.55599 16.8269 10.5892 16.4759 13.5928C16.2757 15.3032 14.901 16.6456 13.1969 16.8368C10.0755 17.1828 6.9255 17.1828 3.80416 16.8368C2.09909 16.6456 0.724437 15.3032 0.52421 13.5928C0.154039 10.4278 0.154039 7.23038 0.52421 4.06537C0.724437 2.35402 2.09909 1.01169 3.80416 0.821337C6.69939 0.500487 9.61986 0.477019 12.5199 0.751303Z" fill="white"/>
<path d="M13.7283 1.85843C13.7491 1.83752 13.7739 1.82094 13.8011 1.80962C13.8284 1.79831 13.8577 1.79248 13.8872 1.79248C13.9167 1.79248 13.9459 1.79831 13.9732 1.80962C14.0005 1.82094 14.0253 1.83752 14.0461 1.85843L15.3157 3.12893C15.3576 3.171 15.3812 3.22799 15.3812 3.2874C15.3812 3.34681 15.3576 3.4038 15.3157 3.44588L7.8696 10.8938C7.8412 10.9219 7.8059 10.942 7.76724 10.9521L6.0487 11.4011C6.01082 11.411 5.97101 11.4108 5.93323 11.4005C5.89545 11.3902 5.86101 11.3703 5.83332 11.3426C5.80564 11.3149 5.78568 11.2805 5.77542 11.2427C5.76516 11.2049 5.76496 11.1651 5.77484 11.1272L6.22378 9.40869C6.23378 9.36998 6.25392 9.33464 6.28215 9.30633L13.7283 1.85843Z" fill="white"/>
</svg>
