<svg width="21" height="19" viewBox="0 0 21 19" fill="none" xmlns="http://www.w3.org/2000/svg">
<path d="M20.3158 3.48897C19.2351 1.56922 16.8796 0.552465 14.735 1.00134C13.7638 1.21397 12.8336 1.67859 12.1284 2.38647C11.5841 2.92285 11.0416 3.46185 10.4974 3.99735C9.69674 3.2011 8.93287 2.30247 7.97561 1.68034C6.95535 1.04963 5.74936 0.788606 4.5596 0.940966C0.397218 1.44672 -1.50941 6.49373 1.39647 9.55974C4.44235 12.5505 7.46636 15.5649 10.5079 18.5618C13.3875 15.7171 16.2593 12.8655 19.145 10.0287C21.0105 8.42661 21.595 5.63098 20.3158 3.48897ZM5.39173 9.04961C4.78623 8.38898 4.0696 7.82111 3.51835 7.11761C2.79997 6.05185 3.3801 4.4821 4.62085 4.14522C5.30423 3.92122 6.09348 4.1181 6.61498 4.60635C7.16361 5.13923 7.69649 5.68873 8.24774 6.21898L8.25211 6.22423C7.29344 7.16073 6.33997 8.10254 5.39173 9.04961ZM10.507 14.0879C9.55697 13.1494 8.60759 12.2102 7.65886 11.2704C9.89449 9.06886 12.124 6.85861 14.3526 4.6501C14.6965 4.30535 15.1664 4.08485 15.6538 4.06122C17.479 3.92647 18.5281 6.13673 17.2296 7.44398C14.9993 9.66824 12.7488 11.8732 10.507 14.0879Z" fill="white"/>
</svg>
