<svg width="19" height="19" viewBox="0 0 19 19" fill="none" xmlns="http://www.w3.org/2000/svg">
<path d="M9.50005 0.0515747C7.62112 0.0515747 5.78438 0.606062 4.22211 1.64492C2.65983 2.68377 1.44219 4.16034 0.723152 5.88789C0.00411619 7.61544 -0.184016 9.51639 0.182545 11.3504C0.549106 13.1843 1.4539 14.8689 2.7825 16.1911C4.11111 17.5133 5.80386 18.4138 7.64669 18.7786C9.48952 19.1434 11.3997 18.9561 13.1356 18.2406C14.8715 17.525 16.3552 16.3132 17.3991 14.7585C18.4429 13.2037 19.0001 11.3758 19.0001 9.50591C19.0001 6.99846 17.9992 4.59372 16.2176 2.82068C14.436 1.04765 12.0196 0.0515747 9.50005 0.0515747ZM9.36943 15.3262C9.17566 15.3262 8.98625 15.269 8.82514 15.1619C8.66403 15.0548 8.53846 14.9025 8.46431 14.7244C8.39016 14.5462 8.37076 14.3502 8.40856 14.161C8.44636 13.9719 8.53967 13.7982 8.67668 13.6618C8.81369 13.5255 8.98826 13.4326 9.1783 13.395C9.36834 13.3574 9.56532 13.3767 9.74434 13.4505C9.92336 13.5243 10.0764 13.6493 10.184 13.8096C10.2917 13.9699 10.3491 14.1584 10.3491 14.3513C10.3491 14.6098 10.2459 14.8578 10.0622 15.0407C9.87845 15.2235 9.62926 15.3262 9.36943 15.3262ZM10.1829 10.5636V11.58C10.1816 11.7867 10.101 11.985 9.95746 12.1345C9.81394 12.2839 9.61842 12.373 9.41099 12.3836H9.34568C9.24069 12.3875 9.13596 12.3707 9.03753 12.3342C8.9391 12.2976 8.84892 12.242 8.77218 12.1706C8.69545 12.0992 8.63369 12.0134 8.59047 11.9181C8.54725 11.8228 8.52342 11.7199 8.52036 11.6154V9.98453C8.51057 9.8898 8.52022 9.79408 8.54873 9.70317C8.57723 9.61226 8.62399 9.52806 8.68618 9.45567C8.74836 9.38329 8.82467 9.32423 8.91048 9.28208C8.99629 9.23993 9.08981 9.21556 9.18536 9.21046C10.1176 9.13955 11.6673 8.79683 11.6673 7.29005C11.6673 6.20871 10.8301 5.476 9.63068 5.476C9.17601 5.48347 8.72835 5.58873 8.3184 5.78456C7.90845 5.98039 7.54591 6.26215 7.25567 6.61052C7.14589 6.7266 7.00391 6.80757 6.84778 6.84313C6.69164 6.87869 6.5284 6.86724 6.37882 6.81023C6.22925 6.75322 6.10008 6.65323 6.00776 6.52297C5.91544 6.39271 5.86412 6.23807 5.86035 6.07871C5.86385 5.85595 5.95561 5.64358 6.11566 5.48782C6.5566 4.97979 7.10412 4.57417 7.71964 4.29954C8.33516 4.02491 9.00371 3.88795 9.67818 3.89831C11.8751 3.89831 13.4069 5.25737 13.4069 7.20732C13.4069 9.00955 12.2373 10.215 10.1829 10.5636Z" fill="white"/>
</svg>
