<svg width="19" height="20" viewBox="0 0 19 20" fill="none" xmlns="http://www.w3.org/2000/svg">
<path d="M1.9095 4.62971H17.1095V6.52971H1.9095V4.62971ZM3.8095 0.829712H15.2095V2.72971H3.8095V0.829712ZM17.1 8.42021H1.9C1.39609 8.42021 0.912816 8.62039 0.556497 8.97671C0.200178 9.33303 0 9.8163 0 10.3202V17.9202C0 18.4241 0.200178 18.9074 0.556497 19.2637C0.912816 19.62 1.39609 19.8202 1.9 19.8202H17.1C17.6039 19.8202 18.0872 19.62 18.4435 19.2637C18.7998 18.9074 19 18.4241 19 17.9202V10.3202C19 9.8163 18.7998 9.33303 18.4435 8.97671C18.0872 8.62039 17.6039 8.42021 17.1 8.42021ZM7.885 17.9202L4.75 14.8422L6.08 13.5122L7.885 15.3172L12.92 10.2822L14.25 11.6122L7.885 17.9202Z" fill="white"/>
</svg>
