<svg width="15" height="19" viewBox="0 0 15 19" fill="none" xmlns="http://www.w3.org/2000/svg">
<path d="M4.79554 16.0379C4.96969 16.6198 5.32689 17.1301 5.81411 17.4929C6.30133 17.8556 6.89256 18.0516 7.5 18.0516C8.10744 18.0516 8.69867 17.8556 9.18589 17.4929C9.67311 17.1301 10.0303 16.6198 10.2045 16.0379H4.79554ZM0.245117 15.2318H14.7549V12.8135L13.1427 10.3952V6.36473C13.1427 5.62372 12.9967 4.88997 12.7132 4.20537C12.4296 3.52077 12.014 2.89872 11.49 2.37475C10.966 1.85078 10.344 1.43514 9.65936 1.15157C8.97476 0.867998 8.24101 0.722046 7.5 0.722046C6.75899 0.722046 6.02524 0.867998 5.34064 1.15157C4.65603 1.43514 4.03399 1.85078 3.51002 2.37475C2.98605 2.89872 2.57041 3.52077 2.28684 4.20537C2.00327 4.88997 1.85731 5.62372 1.85731 6.36473V10.3952L0.245117 12.8135V15.2318Z" fill="white"/>
</svg>
