<svg width="15" height="19" viewBox="0 0 15 19" fill="none" xmlns="http://www.w3.org/2000/svg">
<path d="M6.5625 14.1422H8.4375V8.51721H6.5625V14.1422ZM7.5 6.64221C7.76562 6.64221 7.98844 6.55221 8.16844 6.37221C8.34844 6.19221 8.43812 5.96971 8.4375 5.70471C8.4375 5.43909 8.3475 5.21628 8.1675 5.03628C7.9875 4.85628 7.765 4.76659 7.5 4.76721C7.23438 4.76721 7.01156 4.85721 6.83156 5.03721C6.65156 5.21721 6.56188 5.43971 6.5625 5.70471C6.5625 5.97034 6.6525 6.19315 6.8325 6.37315C7.0125 6.55315 7.235 6.64284 7.5 6.64221ZM7.5 18.8297C5.32812 18.2828 3.535 17.0366 2.12063 15.091C0.706251 13.1453 -0.000624586 10.9853 4.1409e-07 8.61096V2.89221L7.5 0.0797119L15 2.89221V8.61096C15 10.986 14.2928 13.1463 12.8784 15.0919C11.4641 17.0375 9.67125 18.2835 7.5 18.8297Z" fill="white"/>
</svg>
