<svg width="19" height="18" viewBox="0 0 19 18" fill="none" xmlns="http://www.w3.org/2000/svg">
<path d="M9.5 0.480103C8.35645 0.480103 7.22409 0.705342 6.16759 1.14296C5.11109 1.58058 4.15112 2.22201 3.34251 3.03062C1.70944 4.66369 0.791992 6.8786 0.791992 9.18811C0.791992 11.4976 1.70944 13.7125 3.34251 15.3456C4.15112 16.1542 5.11109 16.7956 6.16759 17.2333C7.22409 17.6709 8.35645 17.8961 9.5 17.8961C11.8095 17.8961 14.0244 16.9787 15.6575 15.3456C17.2906 13.7125 18.208 11.4976 18.208 9.18811C18.208 8.04456 17.9828 6.9122 17.5452 5.8557C17.1075 4.7992 16.4661 3.83923 15.6575 3.03062C14.8489 2.22201 13.8889 1.58058 12.8324 1.14296C11.7759 0.705342 10.6436 0.480103 9.5 0.480103ZM13.1574 12.8455L8.6292 10.0589V4.83411H9.9354V9.36227L13.854 11.7134L13.1574 12.8455Z" fill="white"/>
</svg>
