<svg width="17" height="26" viewBox="0 0 17 26" fill="none" xmlns="http://www.w3.org/2000/svg">
<path d="M8.5 15.2881C6.47267 15.2881 4.52838 14.4827 3.09485 13.0492C1.66131 11.6157 0.855957 9.67137 0.855957 7.64404C0.855957 5.61672 1.66131 3.67242 3.09485 2.23889C4.52838 0.805352 6.47267 0 8.5 0C10.5273 0 12.4716 0.805352 13.9052 2.23889C15.3387 3.67242 16.144 5.61672 16.144 7.64404C16.144 9.67137 15.3387 11.6157 13.9052 13.0492C12.4716 14.4827 10.5273 15.2881 8.5 15.2881ZM8.5 11.4661C9.51366 11.4661 10.4858 11.0634 11.2026 10.3466C11.9193 9.62985 12.322 8.65771 12.322 7.64404C12.322 6.63038 11.9193 5.65823 11.2026 4.94147C10.4858 4.2247 9.51366 3.82202 8.5 3.82202C7.48634 3.82202 6.51419 4.2247 5.79742 4.94147C5.08066 5.65823 4.67798 6.63038 4.67798 7.64404C4.67798 8.65771 5.08066 9.62985 5.79742 10.3466C6.51419 11.0634 7.48634 11.4661 8.5 11.4661ZM13.596 14.9696V25.4801L8.5 20.3841L3.40397 25.4801V14.9696C4.89727 16.0161 6.67653 16.5774 8.5 16.5774C10.3235 16.5774 12.1027 16.0161 13.596 14.9696Z" fill="white"/>
</svg>
