<svg width="19" height="21" viewBox="0 0 19 21" fill="none" xmlns="http://www.w3.org/2000/svg">
<path d="M0.860009 13.1176L1.3543 14.9647C1.93176 17.1207 2.22145 18.1991 2.87636 18.898C3.39325 19.4495 4.06197 19.8354 4.79806 20.007C5.73118 20.225 6.80963 19.9363 8.96652 19.3588C11.1215 18.7814 12.1999 18.4926 12.8988 17.8377C12.9562 17.7832 13.0136 17.7268 13.0671 17.6695C12.7415 17.6399 12.4178 17.592 12.0976 17.526C11.4322 17.3941 10.6415 17.1819 9.70651 16.9314L9.60421 16.9036L9.58031 16.8979C8.56306 16.6245 7.71311 16.3969 7.0343 16.1522C6.32012 15.894 5.6719 15.5757 5.12025 15.0594C4.36144 14.3485 3.83044 13.4285 3.59437 12.4159C3.42227 11.6806 3.47199 10.9598 3.60584 10.2131C3.73395 9.49698 3.96341 8.63843 4.23876 7.61066L4.75025 5.70425L4.76746 5.63733C2.93181 6.13162 1.96522 6.42417 1.32083 7.02745C0.768698 7.54474 0.382407 8.21418 0.210839 8.95106C-0.00714512 9.88323 0.281588 10.9617 0.860009 13.1176Z" fill="white"/>
<path fill-rule="evenodd" clip-rule="evenodd" d="M18.141 9.29234L17.6458 11.1395C17.0673 13.2954 16.7786 14.3738 16.1237 15.0727C15.6069 15.6245 14.9382 16.0108 14.202 16.1827C14.1093 16.2047 14.0156 16.221 13.92 16.2324C13.0452 16.3405 11.9772 16.0546 10.0345 15.5345C7.87856 14.9561 6.80012 14.6674 6.10123 14.0124C5.54926 13.4954 5.16298 12.8263 4.99123 12.0898C4.77325 11.1567 5.06198 10.0792 5.6404 7.92325L6.13469 6.07612L6.36797 5.21088C6.80298 3.61807 7.09554 2.74135 7.65675 2.1419C8.17365 1.59044 8.84236 1.20451 9.57845 1.03286C10.5116 0.814876 11.59 1.10361 13.7469 1.68203C15.9019 2.2595 16.9803 2.54823 17.6792 3.20218C18.2314 3.71947 18.6176 4.3889 18.7892 5.12579C19.0072 6.05891 18.7185 7.1364 18.141 9.29234ZM8.79256 8.42232C8.81697 8.33134 8.85905 8.24607 8.91642 8.17136C8.97379 8.09666 9.04531 8.03399 9.1269 7.98693C9.2085 7.93988 9.29856 7.90936 9.39195 7.89712C9.48534 7.88488 9.58023 7.89116 9.67119 7.9156L14.289 9.15371C14.3824 9.17585 14.4703 9.2165 14.5477 9.27325C14.6251 9.33001 14.6903 9.40172 14.7394 9.48413C14.7886 9.56654 14.8207 9.65797 14.8338 9.75302C14.847 9.84806 14.841 9.94478 14.8161 10.0374C14.7912 10.1301 14.7479 10.2168 14.6889 10.2925C14.6299 10.3681 14.5563 10.4312 14.4724 10.4779C14.3886 10.5246 14.2963 10.5539 14.2009 10.5643C14.1055 10.5746 14.009 10.5657 13.9171 10.5381L9.29928 9.30094C9.11576 9.25165 8.95932 9.13153 8.86431 8.96696C8.7693 8.8024 8.74349 8.60589 8.79256 8.42232ZM8.05065 11.193C8.09995 11.0095 8.22007 10.853 8.38464 10.758C8.5492 10.663 8.74475 10.6372 8.92833 10.6863L11.699 11.4292C11.7928 11.4508 11.8813 11.4911 11.9592 11.5477C12.0371 11.6043 12.1028 11.676 12.1524 11.7585C12.202 11.841 12.2344 11.9327 12.2478 12.028C12.2612 12.1234 12.2553 12.2204 12.2304 12.3134C12.2055 12.4064 12.1621 12.4934 12.1028 12.5693C12.0435 12.6452 11.9696 12.7083 11.8854 12.755C11.8012 12.8017 11.7084 12.8309 11.6127 12.841C11.5169 12.851 11.4201 12.8417 11.3281 12.8135L8.55737 12.0716C8.4664 12.0472 8.38112 12.0051 8.30642 11.9478C8.23171 11.8904 8.16905 11.8189 8.12199 11.7373C8.07493 11.6557 8.04441 11.5656 8.03217 11.4722C8.01993 11.3789 8.02621 11.284 8.05065 11.193Z" fill="white"/>
</svg>
